<?xml version="1.0" encoding="UTF-8"?>
<svg width="97px" height="97px" viewBox="0 0 97 97" version="1.1" xmlns="http://www.w3.org/2000/svg" xmlns:xlink="http://www.w3.org/1999/xlink">
    <!-- Generator: Sketch 42 (36781) - http://www.bohemiancoding.com/sketch -->
    <title>codigo_fuente</title>
    <desc>Created with Sketch.</desc>
    <defs></defs>
    <g id="Page-1" stroke="none" stroke-width="1" fill="none" fill-rule="evenodd">
        <g id="Artboard-4" transform="translate(-1010.000000, -791.000000)">
            <g id="codigo_fuente" transform="translate(1010.000000, 791.000000)">
                <path d="M93.9,23.7 C93.9,23.7 90.8,8.9 77.4,3.7 C71.1,1.2 59.6,0 48.3,0 C37,0 25.5,1.2 19.2,3.6 C5.7,8.8 2.6,23.7 2.6,23.7 C0.6,32 1.13686838e-13,40.5 1.13686838e-13,48.1 C1.13686838e-13,55.6 0.6,64.2 2.6,72.5 C2.6,72.5 5.7,87.3 19.1,92.5 C25.4,94.9 36.9,96.1 48.2,96.2 C59.6,96.1 71.1,95 77.4,92.5 C90.8,87.3 93.9,72.5 93.9,72.5 C95.9,64.1 96.6,55.6 96.5,48.1 C96.6,40.5 95.9,32 93.9,23.7 Z" id="Path-Copy-42" fill="#2C1F2D"></path>
                <g id="Group-4" transform="translate(19.000000, 29.000000)">
                    <path d="M20.4331055,32.9228516 L0.315917969,22.2539062 L0.315917969,16.3457031 L20.4331055,5.72558594 L20.4331055,12.6835938 L6.41943359,19.2265625 L20.4331055,26.0136719 L20.4331055,32.9228516 Z M36.8930664,32.9472656 L36.8930664,26.0380859 L50.9555664,19.2998047 L36.8930664,12.6347656 L36.8930664,5.77441406 L57.034668,16.3945312 L57.034668,22.2539062 L36.8930664,32.9472656 Z" id="&lt;/&gt;-copy-2" fill="#00DB9D"></path>
                    <polygon id="Path" fill="#FFFFFF" points="22.9379883 37.6103516 30.2133789 0.598632812 34.4370117 0.598632812 27.0883789 37.6103516"></polygon>
                </g>
            </g>
        </g>
    </g>
</svg>