<?xml version="1.0" encoding="UTF-8"?>
<svg width="100px" height="100px" viewBox="0 0 100 100" version="1.1" xmlns="http://www.w3.org/2000/svg" xmlns:xlink="http://www.w3.org/1999/xlink">
    <!-- Generator: Sketch 42 (36781) - http://www.bohemiancoding.com/sketch -->
    <title>crea_prueba</title>
    <desc>Created with Sketch.</desc>
    <defs></defs>
    <g id="Page-1" stroke="none" stroke-width="1" fill="none" fill-rule="evenodd">
        <g id="Artboard-4" transform="translate(-590.000000, -791.000000)">
            <g id="crea_prueba" transform="translate(590.000000, 791.000000)">
                <path d="M97.2963667,24.6361746 C97.2963667,24.6361746 94.0842396,9.25155925 80.1995611,3.84615385 C73.6716898,1.24740125 61.7557344,0 50.0470129,0 C38.3382915,0 26.422336,1.24740125 19.8944648,3.74220374 C5.90616923,9.14760915 2.6940421,24.6361746 2.6940421,24.6361746 C0.621702024,33.2640333 0,42.0997921 0,50 C0,57.7962578 0.621702024,66.7359667 2.6940421,75.3638254 C2.6940421,75.3638254 5.90616923,90.7484407 19.7908478,96.1538462 C26.318719,98.6486486 38.2346745,99.8960499 49.9433959,100 C61.7557344,99.8960499 73.6716898,98.7525988 80.1995611,96.1538462 C94.0842396,90.7484407 97.2963667,75.3638254 97.2963667,75.3638254 C99.3687068,66.6320166 100.094026,57.7962578 99.9904088,50 C100.094026,42.0997921 99.3687068,33.2640333 97.2963667,24.6361746 Z" id="Path-Copy-43" fill="#2C1F2D"></path>
                <g id="noun_100727_cc-copy-2" transform="translate(17.000000, 20.000000)" fill-rule="nonzero">
                    <g id="Group">
                        <path d="M62.5325878,2.66666667 L24.3074053,2.66666667 C22.1549192,2.66666667 20.4477752,4.85714286 20.4477752,7.61904762 C20.4477752,10.3809524 22.1549192,12.5714286 24.3074053,12.5714286 L62.5325878,12.5714286 C64.6850738,12.5714286 66.3922178,10.3809524 66.3922178,7.61904762 C66.3922178,4.85714286 64.6850738,2.66666667 62.5325878,2.66666667 Z" id="Shape" fill="#00DD9E"></path>
                        <path d="M62.5325878,25.4285714 L24.3074053,25.4285714 C22.1549192,25.4285714 20.4477752,27.6190476 20.4477752,30.3809524 C20.4477752,33.1428571 22.1549192,35.3333333 24.3074053,35.3333333 L62.5325878,35.3333333 C64.6850738,35.3333333 66.3922178,33.1428571 66.3922178,30.3809524 C66.3922178,27.6190476 64.6850738,25.4285714 62.5325878,25.4285714 Z" id="Shape" fill="#00DD9E"></path>
                        <path d="M62.5325878,48.0952381 L24.3074053,48.0952381 C22.1549192,48.0952381 20.4477752,50.2857143 20.4477752,53.047619 C20.4477752,55.8095238 22.1549192,58 24.3074053,58 L62.5325878,58 C64.6850738,58 66.3922178,55.8095238 66.3922178,53.047619 C66.3922178,50.2857143 64.6850738,48.0952381 62.5325878,48.0952381 Z" id="Shape" fill="#FFFFFF"></path>
                        <path d="M16.4824356,2.22798828 L13.9025761,0.132750182 C13.6159251,-0.0577260082 13.2337237,-0.0577260082 13.042623,0.227988277 L5.97189696,8.89465494 L3.20093677,6.41846447 C2.91428571,6.22798828 2.53208431,6.22798828 2.34098361,6.41846447 L0.143325527,8.89465494 C-0.0477751756,9.18036923 -0.0477751756,9.56132161 0.143325527,9.7517978 L6.06744731,15.0851311 C6.35409836,15.2756073 6.73629977,15.2756073 6.92740047,14.989893 L9.0295082,12.4184645 L9.0295082,12.4184645 L16.6735363,2.98989304 C16.864637,2.89465494 16.7690867,2.51370256 16.4824356,2.22798828 Z" id="Shape-Copy" fill="#00DF9F"></path>
                        <path d="M16.4824356,25.0851311 L13.9025761,22.989893 C13.6159251,22.7994168 13.2337237,22.7994168 13.042623,23.0851311 L5.97189696,31.7517978 L3.20093677,29.2756073 C2.91428571,29.0851311 2.53208431,29.0851311 2.34098361,29.2756073 L0.143325527,31.7517978 C-0.0477751756,32.0375121 -0.0477751756,32.4184645 0.143325527,32.6089407 L6.06744731,37.942274 C6.35409836,38.1327502 6.73629977,38.1327502 6.92740047,37.8470359 L9.0295082,35.2756073 L9.0295082,35.2756073 L16.6735363,25.8470359 C16.864637,25.7517978 16.7690867,25.3708454 16.4824356,25.0851311 Z" id="Shape-Copy-2" fill="#00DF9F"></path>
                        <path d="M11.3704918,53.047619 L14.5236534,49.9047619 C14.8103044,49.6190476 14.8103044,49.047619 14.5236534,48.6666667 L12.7081967,46.8571429 C12.4215457,46.5714286 11.8482436,46.5714286 11.4660422,46.8571429 L8.31288056,50 L5.15971897,46.8571429 C4.87306792,46.5714286 4.29976581,46.5714286 3.9175644,46.8571429 L2.10210773,48.6666667 C1.81545667,48.952381 1.81545667,49.5238095 2.10210773,49.9047619 L5.25526932,53.047619 L2.10210773,56.1904762 C1.81545667,56.4761905 1.81545667,57.047619 2.10210773,57.4285714 L3.9175644,59.2380952 C4.20421546,59.5238095 4.77751756,59.5238095 5.15971897,59.2380952 L8.31288056,56.0952381 L11.4660422,59.2380952 C11.7526932,59.5238095 12.3259953,59.5238095 12.7081967,59.2380952 L14.5236534,57.4285714 C14.8103044,57.1428571 14.8103044,56.5714286 14.5236534,56.1904762 L11.3704918,53.047619 Z" id="Shape" fill="#FFFFFF"></path>
                    </g>
                </g>
            </g>
        </g>
    </g>
</svg>