<?xml version="1.0" encoding="UTF-8"?>
<svg width="100px" height="100px" viewBox="0 0 100 100" version="1.1" xmlns="http://www.w3.org/2000/svg" xmlns:xlink="http://www.w3.org/1999/xlink">
    <!-- Generator: Sketch 42 (36781) - http://www.bohemiancoding.com/sketch -->
    <title>Group 3</title>
    <desc>Created with Sketch.</desc>
    <defs></defs>
    <g id="Page-1" stroke="none" stroke-width="1" fill="none" fill-rule="evenodd">
        <g id="Artboard-4" transform="translate(-171.000000, -792.000000)">
            <g id="noun_801639_cc-copy-3" transform="translate(171.000000, 792.000000)">
                <g id="Group">
                    <g id="Group-3">
                        <path d="M96.8041237,24.4329897 C96.8041237,24.4329897 93.6082474,9.17525773 79.7938144,3.81443299 C73.2989691,1.2371134 61.443299,0 49.7938144,0 C38.1443299,0 26.2886598,1.2371134 19.7938144,3.71134021 C5.87628866,9.07216495 2.68041237,24.4329897 2.68041237,24.4329897 C0.618556701,32.9896907 0,41.7525773 0,49.5876289 C0,57.3195876 0.618556701,66.185567 2.68041237,74.742268 C2.68041237,74.742268 5.87628866,90 19.6907216,95.3608247 C26.185567,97.8350515 38.0412371,99.0721649 49.6907216,99.1752577 C61.443299,99.0721649 73.2989691,97.9381443 79.7938144,95.3608247 C93.6082474,90 96.8041237,74.742268 96.8041237,74.742268 C98.8659794,66.0824742 99.5876289,57.3195876 99.4845361,49.5876289 C99.5876289,41.7525773 98.8659794,32.9896907 96.8041237,24.4329897 Z" id="Shape" fill="#2D1F2D" fill-rule="nonzero"></path>
                        <g id="Group-2" transform="translate(22.000000, 25.000000)">
                            <path d="M0.602539062,26.9902344 L0.602539062,21.1308594 C1.74186768,21.0657549 2.60042029,20.7972029 3.17822266,20.3251953 C3.75602502,19.8531877 4.20361169,19.0678766 4.52099609,17.9692383 C4.83838049,16.8706 4.99707031,15.0273567 4.99707031,12.4394531 C4.99707031,9.21678076 5.1191394,6.99919226 5.36328125,5.78662109 C5.6074231,4.57404993 6.0102511,3.61784204 6.57177734,2.91796875 C7.13330359,2.21809546 7.91047681,1.65657764 8.90332031,1.23339844 C9.89616382,0.810219238 11.3365791,0.598632812 13.2246094,0.598632812 L14.2988281,0.598632812 L14.2988281,6.43359375 C12.8828054,6.43359375 11.9550803,6.52311108 11.515625,6.70214844 C11.0761697,6.88118579 10.7465831,7.18228955 10.5268555,7.60546875 C10.3071278,8.02864795 10.1972656,8.81802808 10.1972656,9.97363281 C10.1972656,11.9430437 10.1240242,14.2053909 9.97753906,16.7607422 C9.87988232,18.5022874 9.50553711,20.024082 8.85449219,21.3261719 C8.38248462,22.270187 7.57682861,23.1816362 6.4375,24.0605469 C7.44661963,24.7604202 8.2563446,25.6962832 8.86669922,26.8681641 C9.47705383,28.0400449 9.83919214,29.513012 9.953125,31.2871094 C10.1158862,33.6959756 10.1972656,35.9664607 10.1972656,38.0986328 C10.1972656,39.2216853 10.3152657,39.9988585 10.5512695,40.4301758 C10.7872733,40.861493 11.1249978,41.1748037 11.5644531,41.3701172 C12.0039084,41.5654307 12.9153577,41.6630859 14.2988281,41.6630859 L14.2988281,47.5224609 L13.2246094,47.5224609 C11.3365791,47.5224609 9.93685352,47.3393573 9.02539062,46.9731445 C8.11392773,46.6069318 7.34896143,46.0576208 6.73046875,45.3251953 C6.11197607,44.5927698 5.6643894,43.6406309 5.38769531,42.46875 C5.11100122,41.2968691 4.97265625,39.3112119 4.97265625,36.5117188 C4.97265625,33.4355315 4.83024231,31.34815 4.54541016,30.2495117 C4.260578,29.1508734 3.82519824,28.3492864 3.23925781,27.8447266 C2.65331738,27.3401667 1.77441992,27.0553389 0.602539062,26.9902344 Z M54.6259766,26.9902344 C53.4866479,27.0553389 52.6280953,27.3238909 52.050293,27.7958984 C51.4724906,28.267906 51.0249039,29.0532172 50.7075195,30.1518555 C50.3901351,31.2504938 50.2314453,33.0855991 50.2314453,35.6572266 C50.2314453,38.8798989 50.1093762,41.0974874 49.8652344,42.3100586 C49.6210925,43.5226298 49.2182645,44.4829066 48.6567383,45.190918 C48.095212,45.8989293 47.3180388,46.4645161 46.3251953,46.8876953 C45.3323518,47.3108745 43.8919365,47.5224609 42.0039062,47.5224609 L40.9296875,47.5224609 L40.9296875,41.6630859 C42.2968818,41.6630859 43.2042621,41.5654307 43.6518555,41.3701172 C44.0994489,41.1748037 44.4412423,40.861493 44.6772461,40.4301758 C44.9132499,39.9988585 45.03125,39.2379612 45.03125,38.1474609 C45.03125,36.2919829 45.1044915,34.0621875 45.2509766,31.4580078 C45.3649094,29.6188059 45.7311167,28.1010802 46.3496094,26.9047852 C46.9681021,25.7084901 47.781896,24.7604202 48.7910156,24.0605469 C47.651687,23.1816362 46.846031,22.270187 46.3740234,21.3261719 C45.7392546,20.0566343 45.3649094,18.5267017 45.2509766,16.7363281 C45.0882153,14.3925664 45.0068359,12.1383572 45.0068359,9.97363281 C45.0068359,8.81802808 44.9010427,8.03271692 44.6894531,7.61767578 C44.4778635,7.20263464 44.1523459,6.90153088 43.7128906,6.71435547 C43.2734353,6.52718005 42.3457102,6.43359375 40.9296875,6.43359375 L40.9296875,0.598632812 L42.0039062,0.598632812 C43.8919365,0.598632812 45.2916621,0.77766748 46.203125,1.13574219 C47.1145879,1.49381689 47.8795542,2.03905884 48.4980469,2.77148438 C49.1165396,3.50390991 49.5600573,4.45604883 49.8286133,5.62792969 C50.0971693,6.79981055 50.2314453,8.78546777 50.2314453,11.5849609 C50.2314453,14.6774243 50.3738593,16.7729437 50.6586914,17.871582 C50.9435236,18.9702203 51.3829723,19.7718074 51.9770508,20.2763672 C52.5711293,20.780927 53.4540957,21.0657549 54.6259766,21.1308594 L54.6259766,26.9902344 Z" id="{-}-copy-2" fill="#00DB9D"></path>
                            <path d="M41.02,25.005 C41.02,25.8750043 40.7500027,26.6399967 40.21,27.3 C39.5199965,28.0800039 38.5600061,28.4999997 37.33,28.56 C36.4299955,28.5900001 35.6050037,28.2900031 34.855,27.66 C34.0149958,26.9699965 33.595,26.0700055 33.595,24.96 C33.595,23.7299938 34.0299956,22.7400037 34.9,21.99 C35.6500037,21.389997 36.4899953,21.09 37.42,21.09 C38.3200045,21.09 39.1449962,21.4649962 39.895,22.215 C40.6450037,22.9650037 41.02,23.8949944 41.02,25.005 Z M31.2,24.78 C31.2,25.6500043 30.9450026,26.4449964 30.435,27.165 C29.7449965,28.0650045 28.7700063,28.5299998 27.51,28.56 C26.4899949,28.5900001 25.6125037,28.2300037 24.8775,27.48 C24.1424963,26.7299962 23.775,25.8750048 23.775,24.915 C23.775,23.924995 24.1349964,23.025004 24.855,22.215 C25.5750036,21.4049959 26.4599947,21 27.51,21 C28.6800058,21 29.6099965,21.4499955 30.3,22.35 C30.900003,23.1000037 31.2,23.9099956 31.2,24.78 Z M21.335,24.825 C21.335,27.1350115 20.1200121,28.3499994 17.69,28.47 C16.6399947,28.5300003 15.7625035,28.1925037 15.0575,27.4575 C14.3524965,26.7224963 14,25.8900046 14,24.96 C14,23.8499944 14.3749962,22.890004 15.125,22.08 C15.8450036,21.3599964 16.6549955,21 17.555,21 C18.6350054,21 19.5349964,21.3674963 20.255,22.1025 C20.9750036,22.8375037 21.335,23.7449946 21.335,24.825 Z" id="…-copy-2" fill="#FFFFFF"></path>
                        </g>
                    </g>
                </g>
            </g>
        </g>
    </g>
</svg>