<?xml version="1.0" encoding="UTF-8"?>
<svg width="230px" height="114px" viewBox="0 0 230 114" version="1.1" xmlns="http://www.w3.org/2000/svg" xmlns:xlink="http://www.w3.org/1999/xlink">
    <!-- Generator: Sketch 42 (36781) - http://www.bohemiancoding.com/sketch -->
    <title>apio_negro</title>
    <desc>Created with Sketch.</desc>
    <defs></defs>
    <g id="Page-1" stroke="none" stroke-width="1" fill="none" fill-rule="evenodd">
        <g id="Group-8" transform="translate(-64.000000, -100.000000)">
            <g id="apio_negro" transform="translate(64.000000, 100.000000)">
                <polygon id="Path-Copy-38" fill="#FFFFFF" points="154.847867 88.3276886 154.847867 32.6193513 142.297248 44.7647796 142.297248 88.3276886"></polygon>
                <path d="M104.41488,31.144203 C120.431861,31.144203 133.042245,43.7388956 133.042245,61.228208 C133.042245,78.7175203 120.431861,91.3122129 104.41488,91.3122129 C96.2270947,91.3122129 90.4896687,88.0292362 86.4854235,83.0152353 L86.4854235,113.696145 L73.994569,113.696145 L73.994569,32.6364652 L86.4854235,32.6364652 L86.4854235,39.4411806 C90.4896687,34.4271798 96.2270947,31.144203 104.41488,31.144203 Z M102.920758,42.9032288 C92.6412035,42.9032288 85.6487156,50.7823729 85.6487156,61.228208 C85.6487156,71.674043 92.6412035,79.5531871 102.920758,79.5531871 C113.678432,79.5531871 120.192801,71.2562096 120.192801,61.228208 C120.192801,51.2002063 113.678432,42.9032288 102.920758,42.9032288 Z" id="Combined-Shape" fill="#FFFFFF"></path>
                <path d="M59.1074406,89.8199507 L46.6165861,89.8199507 L46.6165861,82.9555448 C42.6123409,88.0292362 36.8151501,91.3122129 28.6273651,91.3122129 C12.6103842,91.3122129 0,78.7175203 0,61.228208 C0,43.7388956 12.6103842,31.144203 28.6273651,31.144203 C36.8151501,31.144203 42.6123409,34.4868702 46.6165861,39.5605615 L46.6165861,32.6364652 L59.1074406,32.6364652 L59.1074406,89.8199507 Z M30.1214864,42.9032288 C19.3638127,42.9032288 12.8494436,51.2002063 12.8494436,61.228208 C12.8494436,71.2562096 19.3638127,79.5531871 30.1214864,79.5531871 C40.4010413,79.5531871 47.3935292,71.674043 47.3935292,61.228208 C47.3935292,50.7823729 40.4010413,42.9032288 30.1214864,42.9032288 Z" id="Combined-Shape" fill="#FFFFFF"></path>
                <polygon id="Path-7-Copy-3" fill="#2DE19F" points="172.598519 9.91041801 142.297248 39.6651053 142.297248 24.8810849 151.345033 0 151.345033 15.7815827 161.664651 1.27582358 159.448476 16.6516997"></polygon>
                <path d="M195.843708,28.3017994 C215.047651,28.3017994 229.528317,42.469692 229.528317,61.228208 C229.528317,79.9867239 215.047651,94.1546165 195.843708,94.1546165 C176.649963,94.1546165 162.218863,79.9967468 162.218863,61.228208 C162.218863,42.4596691 176.649963,28.3017994 195.843708,28.3017994 Z M195.843708,33.9866067 C179.770966,33.9866067 167.910753,45.6222645 167.910753,61.228208 C167.910753,76.8341514 179.770966,88.4698093 195.843708,88.4698093 C211.93004,88.4698093 223.836427,76.8205934 223.836427,61.228208 C223.836427,45.6358225 211.93004,33.9866067 195.843708,33.9866067 Z" id="Combined-Shape" fill="#2DE19F"></path>
            </g>
        </g>
    </g>
</svg>