<?xml version="1.0" encoding="UTF-8"?>
<svg width="143px" height="54px" viewBox="0 0 143 54" version="1.1" xmlns="http://www.w3.org/2000/svg" xmlns:xlink="http://www.w3.org/1999/xlink">
    <!-- Generator: Sketch 42 (36781) - http://www.bohemiancoding.com/sketch -->
    <title>logo_apio</title>
    <desc>Created with Sketch.</desc>
    <defs></defs>
    <g id="Page-1" stroke="none" stroke-width="1" fill="none" fill-rule="evenodd">
        <g id="logo_apio" fill-rule="nonzero">
            <g id="Page-1">
                <g id="logo">
                    <g id="Symbols">
                        <g id="Group-4">
                            <g id="Group-2">
                                <g id="Page-1" fill="#50E3C2">
                                    <path d="M0.25107438,18.50688 C0.127561983,19.1088 0.524016529,19.70688 1.30558678,20.09832 C5.02634711,21.96264 12.6553636,27.43896 16.9074298,31.66104 C16.9924711,35.02992 16.630843,38.84376 15.6953884,43.1952 C15.0830909,45.2136 15.9509174,48.45 19.3177438,50.86152 C21.2975868,52.27992 24.9482893,53.97024 31.0988017,53.97024 C42.2250413,53.97024 48.6059752,48.7152 48.6059752,39.55248 C48.6059752,38.70456 48.6298678,37.7568 48.6549752,36.7536 C48.8347769,29.58696 49.1069091,18.75696 42.5170165,3.45912 C42.3133223,2.9856 41.7933554,2.58216 41.0765785,2.34024 C36.2271983,0.70392 31.3271983,1.43424 28.2260248,2.26008 C27.8955785,1.84512 27.5521736,1.428 27.1966198,1.01136 C26.7232231,0.45552 25.7982975,0.08424 24.7514793,0.02928 C17.845314,-0.3276 8.30003306,2.60592 5.11138843,7.54992 C4.74652066,8.11608 4.8862314,8.75376 5.48476033,9.24552 C6.11771074,9.76584 6.7482314,10.30728 7.3686281,10.87296 C3.79122314,12.87912 0.703008264,16.30104 0.25107438,18.50688 Z M22.5946694,3.62496 C31.5859669,14.8116 31.1696694,25.42464 31.164405,25.53144 C31.1113554,26.52528 32.4274711,27.3564 34.104,27.3876 C35.7934876,27.42144 37.1829008,26.63904 37.2355455,25.6452 C37.2590331,25.21248 37.6429339,16.14216 30.6335041,5.56584 C32.2606281,5.12568 34.6612231,4.71072 36.9832562,5.17824 C43.0106612,19.57584 42.7527025,29.85456 42.581,36.69936 C42.5554876,37.71648 42.5311901,38.67744 42.5311901,39.55224 C42.5311901,44.48736 40.5477025,50.37 31.0983967,50.37 C28.057157,50.37 25.6683058,49.76352 23.9974463,48.56664 C21.8410413,47.02152 21.344157,44.85456 21.6802727,43.80936 C21.6916116,43.77336 21.7017355,43.73712 21.7094298,43.70064 C25.4188512,26.514 20.5844545,17.046 14.1533058,10.52856 C14.1302231,10.5 14.1099752,10.47096 14.0840579,10.44288 C14.0212893,10.374 13.9496116,10.30968 13.8738843,10.24776 C13.0805702,9.45936 12.2641736,8.71392 11.4384628,8.00328 C13.7329587,5.5416 18.6009669,3.85608 22.5946694,3.62496 Z M10.5281157,14.13024 C12.8606777,16.89264 14.8235124,20.22672 15.9359339,24.47736 C12.6707521,21.94056 9.20066116,19.5732 6.62026446,18.10008 C7.32043802,16.848 8.91557025,15.25704 10.5281157,14.13024 Z" id="Shape"></path>
                                </g>
                                <path d="M72.9960938,31.4179688 L69.0761719,20.0097656 L64.9101562,31.4179688 L72.9960938,31.4179688 Z M67.2480469,16.1777344 L71.203125,16.1777344 L80.5722656,42 L76.7402344,42 L74.1210938,34.265625 L63.9082031,34.265625 L61.1132812,42 L57.5273438,42 L67.2480469,16.1777344 Z M84.0878906,16.1777344 L95.707031,16.1777344 C98.003918,16.1777344 99.855462,16.8251888 101.261719,18.1201172 C102.667976,19.4150455 103.371094,21.2343633 103.371094,23.578125 C103.371094,25.5937601 102.744147,27.3486253 101.490234,28.8427734 C100.236322,30.3369215 98.308607,31.0839844 95.707031,31.0839844 L87.5859375,31.0839844 L87.5859375,42 L84.0878906,42 L84.0878906,16.1777344 Z M97.728516,19.7285156 C96.955074,19.3652326 95.894538,19.1835938 94.546875,19.1835938 L87.5859375,19.1835938 L87.5859375,28.1308594 L94.546875,28.1308594 C96.117195,28.1308594 97.391597,27.7968783 98.370117,27.1289062 C99.348638,26.4609342 99.837891,25.2832116 99.837891,23.5957031 C99.837891,21.6972561 99.134773,20.4082065 97.728516,19.7285156 Z M108.556641,16.1777344 L112.089844,16.1777344 L112.089844,42 L108.556641,42 L108.556641,16.1777344 Z" id="API" fill="#000000"></path>
                                <path d="M140.011719,19.8691406 C141.722665,22.1543083 142.578125,25.0781072 142.578125,28.640625 C142.578125,32.496113 141.599619,35.7011591 139.642578,38.2558594 C137.345692,41.2558744 134.070334,42.7558594 129.816406,42.7558594 C125.84373,42.7558594 122.720714,41.4433725 120.447266,38.8183594 C118.419912,36.2870967 117.40625,33.08791 117.40625,29.2207031 C117.40625,25.7284982 118.273429,22.7402468 120.007812,20.2558594 C122.234386,17.0683434 125.527322,15.4746094 129.886719,15.4746094 C134.445335,15.4746094 137.820302,16.9394385 140.011719,19.8691406 Z M136.926758,36.3134766 C138.303718,34.1044811 138.992188,31.5644675 138.992188,28.6933594 C138.992188,25.6581879 138.19825,23.214853 136.610352,21.3632812 C135.022453,19.5117095 132.851576,18.5859375 130.097656,18.5859375 C127.425768,18.5859375 125.246102,19.5029205 123.558594,21.3369141 C121.871085,23.1709076 121.027344,25.8749821 121.027344,29.4492188 C121.027344,32.308608 121.750969,34.7197167 123.198242,36.6826172 C124.645515,38.6455176 126.992171,39.6269531 130.238281,39.6269531 C133.320328,39.6269531 135.549798,38.522472 136.926758,36.3134766 Z" id="O" fill="#50E3C2"></path>
                            </g>
                        </g>
                    </g>
                </g>
            </g>
        </g>
    </g>
</svg>