<?xml version="1.0" encoding="UTF-8"?>
<svg width="465px" height="585px" viewBox="0 0 465 585" version="1.1" xmlns="http://www.w3.org/2000/svg" xmlns:xlink="http://www.w3.org/1999/xlink">
    <!-- Generator: Sketch 42 (36781) - http://www.bohemiancoding.com/sketch -->
    <title>Group 13</title>
    <desc>Created with Sketch.</desc>
    <defs></defs>
    <g id="Page-1" stroke="none" stroke-width="1" fill="none" fill-rule="evenodd">
        <g id="Artboard-4" transform="translate(-717.000000, -83.000000)">
            <g id="Group-13" transform="translate(717.000000, 83.000000)">
                <path d="M382.134343,237.049249 L382.134343,237.073364 L133.508063,237.073364 C133.192168,237.071684 132.875846,237.073364 132.559108,237.073364 C86.9629717,237.073364 50,202.258998 50,159.313301 C50,116.367603 86.9629717,81.5532372 132.559108,81.5532372 C138.125442,81.5532372 143.563113,82.072086 148.820578,83.0612371 C164.959837,34.9254581 212.275719,6.06784894e-15 260.668069,0 C315.358553,0 368.674137,44.6079455 377.166409,102.478875 C378.184285,102.436899 379.207776,102.415693 380.236432,102.415693 C419.019353,102.415693 450.459122,132.55984 450.459122,169.744529 C450.459122,206.32073 420.03989,236.084926 382.134349,237.049249 Z" id="Combined-Shape" fill-opacity="0.799999952" fill="#FFFFFF"></path>
                <path d="M214.810427,177.057768 L214.810427,177.073364 L54.0094787,177.073364 C53.8051708,177.072277 53.6005874,177.073364 53.3957346,177.073364 C23.9060847,177.073364 0,154.556906 0,126.781448 C0,99.0059901 23.9060847,76.4895324 53.3957346,76.4895324 C56.9958034,76.4895324 60.5126587,76.8251019 63.9129648,77.464843 C74.3511538,46.3326597 104.953062,23.7443525 136.251185,23.7443525 C171.622674,23.7443525 206.104935,52.5948825 211.597377,90.0233486 C212.255696,89.9962007 212.917647,89.9824854 213.582938,89.9824854 C238.666089,89.9824854 259,109.478443 259,133.527925 C259,157.183864 239.326127,176.434086 214.810427,177.057768 Z" id="Combined-Shape" fill-opacity="0.400000006" fill="#FFFFFF"></path>
                <path d="M435.14218,127.334498 L435.14218,127.345036 L326.492891,127.345036 C326.354845,127.344302 326.216613,127.345036 326.078199,127.345036 C306.15276,127.345036 290,112.131213 290,93.3640117 C290,74.5968103 306.15276,59.3829876 326.078199,59.3829876 C328.510678,59.3829876 330.886932,59.6097237 333.184436,60.0419812 C340.237266,39.0067222 360.914231,23.7443525 382.061611,23.7443525 C405.961267,23.7443525 429.260093,43.2379552 432.971201,68.5274606 C433.416011,68.5091148 433.863275,68.4998477 434.312796,68.4998477 C451.260871,68.4998477 465,81.6727918 465,97.9224418 C465,113.906185 451.706842,126.913092 435.14218,127.334498 Z" id="Combined-Shape" fill-opacity="0.699999988" fill="#FFFFFF"></path>
                <path d="M173.793137,257.93582 L173.793137,414.177076 C173.793137,414.177076 170.006471,452.277342 128.361592,452.277342 C86.7167132,452.277342 74.6728369,423.125165 74.6728369,397.126341" id="Path-12" stroke-opacity="0.7" stroke="#EEEEEE" stroke-width="20"></path>
                <path d="M426.215237,257.93582 L426.215237,414.177076 C426.215237,414.177076 422.428572,452.277342 380.783693,452.277342 C339.138814,452.277342 327.094937,423.125165 327.094937,397.126341" id="Path-12" stroke-opacity="0.7" stroke="#EEEEEE" stroke-width="20" transform="translate(376.655087, 355.106581) scale(-1, 1) translate(-376.655087, -355.106581) "></path>
                <path d="M251,257.93582 L251,532.044941" id="Path-13" stroke-opacity="0.4" stroke="#EEEEEE" stroke-width="20"></path>
                <path d="M209,257.93582 L209,481.83318" id="Path-14" stroke="#2DE19F" stroke-width="20"></path>
                <path d="M295,257.93582 L295,481.83318" id="Path-14-Copy" stroke="#2DE19F" stroke-width="20"></path>
                <ellipse id="Oval-6" fill="#52A2FF" cx="207.526574" cy="305.350493" rx="17.0811948" ry="17.0692822"></ellipse>
                <ellipse id="Oval-7" fill="#52A2FF" cx="207.526574" cy="421.042294" rx="15.1832842" ry="15.1726953"></ellipse>
                <ellipse id="Oval-8" fill="#52A2FF" cx="294.830458" cy="350.868579" rx="15.1832842" ry="15.1726953"></ellipse>
                <ellipse id="Oval-9" stroke="#EEEEEE" stroke-width="20.4000006" cx="249.280606" cy="551.906791" rx="22.7749264" ry="22.7590429"></ellipse>
                <ellipse id="Oval-10" stroke="#EEEEEE" stroke-width="20.4000006" cx="425.786285" cy="377.420795" rx="22.7749264" ry="22.7590429"></ellipse>
                <ellipse id="Oval-11" stroke="#EEEEEE" stroke-width="20.4000006" cx="74.6728369" cy="381.213969" rx="20.8770158" ry="20.862456"></ellipse>
            </g>
        </g>
    </g>
</svg>